# Blender 3.6.0
# www.blender.org
mtllib Edificio_6.mtl
o E6
v -27.777889 9.509238 -41.739067
v -27.777889 -0.114440 -41.739067
v -27.777889 9.509239 -21.854597
v -27.777889 -0.114439 -21.854597
v -37.777889 9.509238 -41.739067
v -37.777889 -0.114440 -41.739067
v -37.777889 9.509239 -21.854597
v -37.777889 -0.114439 -21.854597
v -37.777889 -0.114439 -31.796833
v -27.777889 9.509239 -31.796833
v -37.777889 9.509239 -31.796833
v -27.777889 -0.114439 -31.796833
v -17.949902 9.509238 -41.739067
v -17.949902 -0.114440 -41.739067
v -17.949902 -0.114439 -31.796833
v -17.949902 9.509239 -31.796833
v -27.777889 8.156255 -41.739067
v -37.777889 8.156256 -21.854597
v -27.777889 8.156256 -21.854597
v -37.777889 8.156255 -41.739067
v -27.777889 8.156256 -31.796833
v -37.777889 8.156256 -31.796833
v -17.949902 8.156255 -41.739067
v -17.949902 8.156256 -31.796833
v -38.462051 8.156256 -21.170437
v -38.462051 9.509239 -21.170437
v -27.093729 9.509239 -21.170437
v -27.093729 9.509239 -31.112673
v -38.458839 9.509239 -31.796833
v -38.462051 9.509238 -42.423229
v -27.777889 9.509238 -42.420021
v -17.265739 9.509238 -42.423229
v -17.265739 9.509239 -31.112673
v -27.777889 8.156255 -42.420021
v -27.093729 8.156256 -21.170437
v -38.462051 8.156255 -42.423229
v -27.093729 8.156256 -31.112673
v -38.458839 8.156256 -31.796833
v -17.265739 8.156255 -42.423229
v -17.265739 8.156256 -31.112673
v -38.826149 8.488388 -20.717737
v -38.826149 9.177107 -20.717737
v -27.731514 8.488387 -42.783707
v -27.731514 9.177106 -42.783707
v -27.021070 9.177107 -20.717737
v -27.021070 8.488388 -20.717737
v -38.826149 8.488387 -42.787041
v -38.826149 9.177106 -42.787041
v -27.021070 9.177107 -31.041943
v -27.021070 8.488388 -31.041943
v -38.822815 9.177107 -31.752388
v -38.822815 8.488388 -31.752388
v -16.815498 8.488387 -42.787041
v -16.815498 9.177106 -42.787041
v -16.815498 8.488388 -31.041943
v -16.815498 9.177107 -31.041943
v -27.757742 8.623964 -21.854597
v -37.757744 8.623964 -21.854597
v -27.757742 8.623964 -31.796833
v -37.757744 8.623964 -31.796833
v -37.757744 8.623963 -41.739067
v -27.757742 8.623963 -41.739067
v -17.929752 8.623963 -41.739067
v -17.929752 8.623964 -31.796833
vn -0.0000 -0.0000 -1.0000
vn -0.0000 1.0000 -0.0000
vn -0.0000 -1.0000 -0.0000
vn -0.0000 -0.0000 1.0000
vn 0.9997 0.0227 -0.0000
vn 1.0000 -0.0000 -0.0000
vn -1.0000 -0.0000 -0.0000
vn 0.0002 -0.7384 -0.6743
vn -0.0000 -0.2083 0.9781
vn -0.6740 -0.7387 0.0002
vn 0.9769 -0.2137 -0.0000
vn -0.0002 -0.7384 -0.6744
vn -0.0000 -0.8063 0.5915
vn -0.0000 0.2083 0.9781
vn 0.5936 -0.8047 -0.0000
vn 0.5936 0.8047 -0.0000
vn -0.0000 0.8063 0.5915
vn 0.0002 0.7384 -0.6743
vn -0.0002 0.7384 -0.6744
vn 0.9769 0.2137 -0.0000
vn -0.6740 0.7387 0.0002
vn -0.6741 -0.7387 -0.0002
vn -1.0000 -0.0000 -0.0003
vn -0.0003 -0.0000 -1.0000
vn 0.0003 -0.0000 -1.0000
vn -1.0000 -0.0000 0.0003
vn -0.6741 0.7387 -0.0002
vn -0.9997 -0.0228 -0.0000
vt 0.875000 0.750000
vt 0.625000 0.750000
vt 0.590481 1.000000
vt 0.590481 0.750000
vt 0.125000 0.625000
vt 0.375000 0.625000
vt 0.375000 0.750000
vt 0.125000 0.750000
vt 0.590481 0.250000
vt 0.590481 0.125000
vt 0.590481 0.625000
vt 0.625000 0.625000
vt 0.125000 0.500000
vt 0.375000 0.500000
vt 0.590481 0.500000
vt 0.625000 0.500000
vt 0.875000 0.500000
vt 0.875000 0.625000
vt 0.375000 0.000000
vt 0.590481 0.000000
vt 0.375000 0.125000
vt 0.375000 0.250000
vt 0.375000 1.000000
vt 0.599280 0.250000
vt 0.599280 0.500000
vt 0.599280 0.625000
vt 0.599280 0.125000
vt 0.599280 0.750000
vt 0.599280 1.000000
vt 0.616201 0.625000
vt 0.616201 0.500000
vt 0.616201 0.750000
vt 0.625000 1.000000
vt 0.616201 1.000000
vt 0.616201 0.250000
vt 0.625000 0.250000
vt 0.616201 0.125000
vt 0.625000 0.125000
vt 0.599280 0.000000
vt 0.616201 0.000000
vt 0.625000 0.000000
s 0
usemtl Material.005
f 7/1/1 3/2/1 57/2/1 58/1/1
f 3/2/2 7/1/2 26/1/2 27/2/2
f 18/3/3 19/4/3 35/4/3 25/3/3
f 9/5/3 12/6/3 4/7/3 8/8/3
f 20/9/3 22/10/3 38/10/3 36/9/3
f 19/4/3 21/11/3 37/11/3 35/4/3
f 16/12/2 10/12/2 28/12/2 33/12/2
f 6/13/3 2/14/3 12/6/3 9/5/3
f 17/15/3 20/9/3 36/9/3 34/15/3
f 1/16/4 5/17/4 61/17/4 62/16/4
f 5/17/2 1/16/2 31/16/2 30/17/2
f 11/18/5 7/1/5 58/1/5 60/18/5
f 12/6/3 2/14/3 14/14/3 15/6/3
f 21/11/4 12/6/4 15/6/4 24/11/4
f 23/15/3 17/15/3 34/15/3 39/15/3
f 14/14/6 23/15/6 24/11/6 15/6/6
f 8/19/7 18/20/7 22/10/7 9/21/7
f 2/14/1 17/15/1 23/15/1 14/14/1
f 6/22/1 20/9/1 17/15/1 2/14/1
f 12/6/6 21/11/6 19/4/6 4/7/6
f 9/21/7 22/10/7 20/9/7 6/22/7
f 4/7/4 19/4/4 18/3/4 8/23/4
f 36/9/8 47/24/8 43/25/8 34/15/8
f 50/26/9 37/11/9 40/11/9 55/26/9
f 38/10/10 52/27/10 47/24/10 36/9/10
f 37/11/11 50/26/11 46/28/11 35/4/11
f 34/15/12 43/25/12 53/25/12 39/15/12
f 35/4/13 46/28/13 41/29/13 25/3/13
f 28/12/14 49/30/14 56/30/14 33/12/14
f 21/11/3 24/11/3 40/11/3 37/11/3
f 7/1/2 11/18/2 29/18/2 26/1/2
f 10/12/2 3/2/2 27/2/2 28/12/2
f 13/16/2 16/12/2 33/12/2 32/16/2
f 24/11/3 23/15/3 39/15/3 40/11/3
f 22/10/3 18/20/3 25/20/3 38/10/3
f 11/18/2 5/17/2 30/17/2 29/18/2
f 1/16/2 13/16/2 32/16/2 31/16/2
f 39/15/15 53/25/15 55/26/15 40/11/15
f 54/31/16 32/16/16 33/12/16 56/30/16
f 45/32/17 27/2/17 26/33/17 42/34/17
f 48/35/18 30/36/18 31/16/18 44/31/18
f 44/31/19 31/16/19 32/16/19 54/31/19
f 49/30/20 28/12/20 27/2/20 45/32/20
f 51/37/21 29/38/21 30/36/21 48/35/21
f 25/20/22 41/39/22 52/27/22 38/10/22
f 50/26/4 55/26/4 56/30/4 49/30/4
f 54/31/6 56/30/6 55/26/6 53/25/6
f 42/40/23 51/37/23 52/27/23 41/39/23
f 44/31/24 54/31/24 53/25/24 43/25/24
f 48/35/25 44/31/25 43/25/25 47/24/25
f 49/30/6 45/32/6 46/28/6 50/26/6
f 51/37/26 48/35/26 47/24/26 52/27/26
f 45/32/4 42/34/4 41/29/4 46/28/4
f 42/40/27 26/41/27 29/38/27 51/37/27
f 59/12/2 60/18/2 58/1/2 57/2/2
f 62/16/2 61/17/2 60/18/2 59/12/2
f 62/16/2 59/12/2 64/12/2 63/16/2
f 10/12/1 16/12/1 64/12/1 59/12/1
f 13/16/4 1/16/4 62/16/4 63/16/4
f 16/12/28 13/16/28 63/16/28 64/12/28
f 5/17/5 11/18/5 60/18/5 61/17/5
f 3/2/28 10/12/28 59/12/28 57/2/28
