# Blender 3.6.0
# www.blender.org
mtllib Fence.mtl
o Estructura.004
v 6.564634 -0.000001 10.846895
v 6.564634 3.407946 10.846908
v 7.590383 -0.000001 10.846895
v 7.590383 3.407946 10.846908
v 7.077509 3.883694 10.846908
v 7.077509 -0.000001 10.846895
v 6.564634 -0.000001 11.462013
v 6.564634 3.407946 11.462027
v 7.590383 -0.000001 11.462013
v 7.590383 3.407946 11.462027
v 7.077509 3.883694 11.462027
v 7.077509 -0.000001 11.462013
v 7.440567 1.406271 11.328137
v 7.440567 2.001674 11.328137
v 7.440567 1.406271 10.980782
v 7.440567 2.001674 10.980782
v 8.048616 1.406271 11.328137
v 8.048616 2.001674 11.328137
v 8.048616 1.406271 10.980782
v 8.048616 2.001674 10.980782
v 8.048616 -0.000001 10.846895
v 8.048616 3.407946 10.846908
v 9.074366 -0.000001 10.846895
v 9.074366 3.407946 10.846908
v 8.561491 3.883694 10.846908
v 8.561491 -0.000001 10.846895
v 8.048616 -0.000001 11.462013
v 8.048616 3.407946 11.462027
v 9.074366 -0.000001 11.462013
v 9.074366 3.407946 11.462027
v 8.561491 3.883694 11.462027
v 8.561491 -0.000001 11.462013
v 8.924549 1.406271 11.328137
v 8.924549 2.001674 11.328137
v 8.924549 1.406271 10.980782
v 8.924549 2.001674 10.980782
v 9.532599 1.406271 11.328137
v 9.532599 2.001674 11.328137
v 9.532599 1.406271 10.980782
v 9.532599 2.001674 10.980782
v 9.532599 -0.000001 10.846894
v 9.532599 3.407946 10.846908
v 10.558348 -0.000001 10.846894
v 10.558348 3.407946 10.846908
v 10.045474 3.883694 10.846908
v 10.045473 -0.000001 10.846894
v 9.532599 -0.000001 11.462013
v 9.532599 3.407946 11.462027
v 10.558348 -0.000001 11.462013
v 10.558348 3.407946 11.462027
v 10.045474 3.883694 11.462027
v 10.045473 -0.000001 11.462013
v 10.408532 1.406271 11.328137
v 10.408532 2.001674 11.328137
v 10.408532 1.406271 10.980782
v 10.408532 2.001674 10.980782
v 11.016582 1.406271 11.328137
v 11.016582 2.001674 11.328137
v 11.016582 1.406271 10.980782
v 11.016582 2.001674 10.980782
v 11.016582 -0.000001 10.846894
v 11.016582 3.407946 10.846908
v 12.042331 -0.000000 10.846894
v 12.042330 3.407946 10.846908
v 11.529456 3.883694 10.846908
v 11.529456 -0.000000 10.846894
v 11.016582 -0.000001 11.462013
v 11.016582 3.407946 11.462027
v 12.042331 -0.000000 11.462013
v 12.042330 3.407946 11.462027
v 11.529456 3.883694 11.462027
v 11.529456 -0.000000 11.462013
v 11.892514 1.406271 11.328137
v 11.892515 2.001675 11.328137
v 11.892514 1.406271 10.980782
v 11.892515 2.001675 10.980782
v 12.500565 1.406271 11.328137
v 12.500565 2.001675 11.328137
v 12.500565 1.406271 10.980782
v 12.500565 2.001675 10.980782
v 12.500565 -0.000000 10.846894
v 12.500565 3.407946 10.846908
v 13.526314 -0.000000 10.846894
v 13.526313 3.407946 10.846908
v 13.013438 3.883695 10.846908
v 13.013439 -0.000000 10.846894
v 12.500565 -0.000000 11.462013
v 12.500565 3.407946 11.462027
v 13.526314 -0.000000 11.462013
v 13.526313 3.407946 11.462027
v 13.013438 3.883695 11.462027
v 13.013439 -0.000000 11.462013
v 13.376497 1.406271 11.328137
v 13.376497 2.001675 11.328137
v 13.376497 1.406271 10.980782
v 13.376497 2.001675 10.980782
v 13.984547 1.406271 11.328137
v 13.984547 2.001675 11.328137
v 13.984547 1.406271 10.980782
v 13.984547 2.001675 10.980782
v 13.984547 -0.000000 10.846894
v 13.984547 3.407946 10.846908
v 15.010296 -0.000000 10.846894
v 15.010296 3.407946 10.846908
v 14.497421 3.883695 10.846908
v 14.497421 -0.000000 10.846894
v 13.984547 -0.000000 11.462013
v 13.984547 3.407946 11.462027
v 15.010296 -0.000000 11.462013
v 15.010296 3.407946 11.462027
v 14.497421 3.883695 11.462027
v 14.497421 -0.000000 11.462013
v 14.860479 1.406271 11.328136
v 14.860479 2.001675 11.328136
v 14.860479 1.406271 10.980782
v 14.860479 2.001675 10.980782
v 15.468530 1.406271 11.328136
v 15.468530 2.001675 11.328136
v 15.468530 1.406271 10.980782
v 15.468530 2.001675 10.980782
v 15.468530 -0.000000 10.846894
v 15.468529 3.407946 10.846908
v 16.494278 -0.000000 10.846894
v 16.494278 3.407946 10.846908
v 15.981404 3.883695 10.846908
v 15.981404 -0.000000 10.846894
v 15.468530 -0.000000 11.462013
v 15.468529 3.407946 11.462027
v 16.494278 -0.000000 11.462013
v 16.494278 3.407946 11.462027
v 15.981404 3.883695 11.462027
v 15.981404 -0.000000 11.462013
v 16.344463 1.406271 11.328136
v 16.344461 2.001675 11.328136
v 16.344463 1.406271 10.980782
v 16.344461 2.001675 10.980782
v 16.952511 1.406271 11.328136
v 16.952511 2.001675 11.328136
v 16.952511 1.406271 10.980782
v 16.952511 2.001675 10.980782
v 16.952513 -0.000000 10.846894
v 16.952513 3.407946 10.846908
v 17.978260 0.000000 10.846894
v 17.978260 3.407946 10.846908
v 17.465387 3.883695 10.846908
v 17.465387 -0.000000 10.846894
v 16.952513 -0.000000 11.462013
v 16.952513 3.407946 11.462026
v 17.978260 0.000000 11.462013
v 17.978260 3.407946 11.462026
v 17.465387 3.883695 11.462026
v 17.465387 -0.000000 11.462013
v 17.828445 1.406272 11.328136
v 17.828445 2.001675 11.328136
v 17.828445 1.406272 10.980782
v 17.828445 2.001675 10.980782
v 18.436495 1.406272 11.328136
v 18.436495 2.001675 11.328136
v 18.436495 1.406272 10.980782
v 18.436495 2.001675 10.980782
v 18.436495 0.000000 10.846894
v 18.436495 3.407947 10.846908
v 19.462242 0.000000 10.846894
v 19.462242 3.407947 10.846908
v 18.949369 3.883695 10.846908
v 18.949369 0.000000 10.846894
v 18.436495 0.000000 11.462013
v 18.436495 3.407947 11.462026
v 19.462244 0.000000 11.462013
v 19.462242 3.407947 11.462026
v 18.949369 3.883695 11.462026
v 18.949369 0.000000 11.462013
v 19.312428 1.406272 11.328136
v 19.312428 2.001675 11.328136
v 19.312428 1.406272 10.980782
v 19.312428 2.001675 10.980782
v 19.920477 1.406272 11.328136
v 19.920477 2.001675 11.328136
v 19.920477 1.406272 10.980782
v 19.920477 2.001675 10.980782
v 19.920477 0.000000 10.846894
v 19.920477 3.407947 10.846908
v 20.946224 0.000000 10.846894
v 20.946224 3.407947 10.846908
v 20.433352 3.883695 10.846908
v 20.433352 0.000000 10.846894
v 19.920477 0.000000 11.462013
v 19.920477 3.407947 11.462026
v 20.946224 0.000000 11.462012
v 20.946224 3.407947 11.462026
v 20.433352 3.883695 11.462026
v 20.433352 0.000000 11.462012
v 20.796410 1.406272 11.328136
v 20.796410 2.001675 11.328136
v 20.796410 1.406272 10.980782
v 20.796410 2.001675 10.980782
v 21.404459 1.406272 11.328136
v 21.404459 2.001675 11.328136
v 21.404459 1.406272 10.980782
v 21.404459 2.001675 10.980782
v 21.404459 0.000000 10.846894
v 21.404459 3.407947 10.846908
v 22.430206 0.000000 10.846894
v 22.430206 3.407947 10.846908
v 21.917334 3.883695 10.846908
v 21.917334 0.000000 10.846894
v 21.404459 0.000000 11.462012
v 21.404459 3.407947 11.462026
v 22.430206 0.000000 11.462012
v 22.430206 3.407947 11.462026
v 21.917334 3.883695 11.462026
v 21.917334 0.000000 11.462012
v 22.280392 1.406272 11.328136
v 22.280392 2.001675 11.328136
v 22.280392 1.406272 10.980782
v 22.280392 2.001675 10.980782
v 22.888443 1.406272 11.328136
v 22.888441 2.001675 11.328136
v 22.888443 1.406272 10.980782
v 22.888441 2.001675 10.980782
v 22.888443 0.000000 10.846894
v 22.888441 3.407947 10.846908
v 23.914188 0.000000 10.846894
v 23.914188 3.407947 10.846908
v 23.401314 3.883695 10.846908
v 23.401314 0.000000 10.846894
v 22.888443 0.000000 11.462012
v 22.888441 3.407947 11.462026
v 23.914188 0.000000 11.462012
v 23.914188 3.407947 11.462026
v 23.401314 3.883695 11.462026
v 23.401314 0.000000 11.462012
v 23.764374 1.406272 11.328136
v 23.764374 2.001675 11.328136
v 23.764374 1.406272 10.980782
v 23.764374 2.001675 10.980782
v 24.372425 1.406272 11.328136
v 24.372425 2.001675 11.328136
v 24.372425 1.406272 10.980781
v 24.372425 2.001675 10.980781
v 24.372425 0.000000 10.846894
v 24.372423 3.407947 10.846908
v 25.398170 0.000001 10.846894
v 25.398170 3.407947 10.846908
v 24.885296 3.883696 10.846908
v 24.885296 0.000001 10.846894
v 24.372425 0.000000 11.462012
v 24.372423 3.407947 11.462026
v 25.398170 0.000001 11.462012
v 25.398170 3.407947 11.462026
v 24.885296 3.883696 11.462026
v 24.885296 0.000001 11.462012
v 25.248356 1.406272 11.328136
v 25.248356 2.001676 11.328136
v 25.248356 1.406272 10.980781
v 25.248356 2.001676 10.980781
v 25.856407 1.406272 11.328136
v 25.856407 2.001676 11.328136
v 25.856407 1.406272 10.980781
v 25.856407 2.001676 10.980781
v 25.856407 0.000001 10.846894
v 25.856405 3.407947 10.846908
v 26.882153 0.000001 10.846894
v 26.882153 3.407947 10.846907
v 26.369278 3.883696 10.846908
v 26.369278 0.000001 10.846894
v 25.856407 0.000001 11.462012
v 25.856405 3.407947 11.462026
v 26.882153 0.000001 11.462012
v 26.882153 3.407947 11.462026
v 26.369278 3.883696 11.462026
v 26.369278 0.000001 11.462012
v 26.732338 1.406272 11.328136
v 26.732338 2.001676 11.328136
v 26.732338 1.406272 10.980781
v 26.732338 2.001676 10.980781
v 27.340389 1.406272 11.328136
v 27.340389 2.001676 11.328136
v 27.340389 1.406272 10.980781
v 27.340389 2.001676 10.980781
v 27.340389 0.000001 10.846894
v 27.340387 3.407947 10.846907
v 28.366135 0.000001 10.846894
v 28.366135 3.407947 10.846907
v 27.853260 3.883696 10.846907
v 27.853260 0.000001 10.846894
v 27.340389 0.000001 11.462012
v 27.340387 3.407947 11.462026
v 28.366135 0.000001 11.462012
v 28.366135 3.407947 11.462026
v 27.853260 3.883696 11.462026
v 27.853260 0.000001 11.462012
v 28.216320 1.406272 11.328136
v 28.216320 2.001676 11.328136
v 28.216320 1.406272 10.980781
v 28.216320 2.001676 10.980781
v 28.824371 1.406272 11.328136
v 28.824371 2.001676 11.328136
v 28.824371 1.406272 10.980781
v 28.824371 2.001676 10.980781
v 28.824371 0.000001 10.846894
v 28.824371 3.407947 10.846907
v 29.850117 0.000001 10.846894
v 29.850117 3.407947 10.846907
v 29.337242 3.883696 10.846907
v 29.337242 0.000001 10.846894
v 28.824371 0.000001 11.462012
v 28.824371 3.407947 11.462026
v 29.850117 0.000001 11.462012
v 29.850117 3.407947 11.462026
v 29.337242 3.883696 11.462026
v 29.337242 0.000001 11.462012
v 29.700302 1.406272 11.328136
v 29.700302 2.001676 11.328136
v 29.700302 1.406272 10.980781
v 29.700302 2.001676 10.980781
v 30.308353 1.406273 11.328136
v 30.308353 2.001676 11.328136
v 30.308353 1.406273 10.980781
v 30.308353 2.001676 10.980781
v 30.308353 0.000001 10.846893
v 30.308353 3.407947 10.846907
v 31.334099 0.000001 10.846893
v 31.334099 3.407948 10.846907
v 30.821224 3.883696 10.846907
v 30.821224 0.000001 10.846893
v 30.308353 0.000001 11.462012
v 30.308353 3.407947 11.462026
v 31.334099 0.000001 11.462012
v 31.334099 3.407948 11.462026
v 30.821224 3.883696 11.462026
v 30.821224 0.000001 11.462012
v 31.184284 1.406273 11.328136
v 31.184284 2.001676 11.328136
v 31.184284 1.406273 10.980781
v 31.184284 2.001676 10.980781
v 31.792336 1.406273 11.328136
v 31.792336 2.001676 11.328136
v 31.792336 1.406273 10.980781
v 31.792336 2.001676 10.980781
v 31.792336 0.000001 10.846893
v 31.792336 3.407948 10.846907
v 32.818081 0.000001 10.846893
v 32.818081 3.407948 10.846907
v 32.305206 3.883696 10.846907
v 32.305206 0.000001 10.846893
v 31.792336 0.000001 11.462012
v 31.792336 3.407948 11.462026
v 32.818081 0.000001 11.462012
v 32.818081 3.407948 11.462026
v 32.305206 3.883696 11.462026
v 32.305206 0.000001 11.462012
vn -0.0000 -0.0000 -1.0000
vn 1.0000 -0.0000 -0.0000
vn -0.0000 -1.0000 -0.0000
vn 0.6801 0.7331 -0.0000
vn -1.0000 -0.0000 -0.0000
vn -0.0000 -0.0000 1.0000
vn -0.6801 0.7331 -0.0000
vn -0.0000 1.0000 -0.0000
vt 1.000000 0.000000
vt 0.375000 0.000000
vt 0.625000 0.000000
vt 0.625000 0.250000
vt 0.375000 0.250000
vt 0.625000 0.500000
vt 0.375000 0.500000
vt 0.625000 0.750000
vt 0.375000 0.750000
vt 0.625000 1.000000
vt 0.375000 1.000000
vt 0.125000 0.500000
vt 0.125000 0.750000
vt 0.875000 0.500000
vt 0.875000 0.750000
s 0
usemtl Material.003
f 2/1/1 5/1/1 6/1/1 1/1/1
f 3/1/2 4/1/2 10/1/2 9/1/2
f 1/1/3 6/1/3 12/1/3 7/1/3
f 4/1/4 5/1/4 11/1/4 10/1/4
f 2/1/5 1/1/5 7/1/5 8/1/5
f 11/1/6 8/1/6 7/1/6 12/1/6
f 6/1/3 3/1/3 9/1/3 12/1/3
f 5/1/7 2/1/7 8/1/7 11/1/7
f 12/1/6 9/1/6 10/1/6 11/1/6
f 5/1/1 4/1/1 3/1/1 6/1/1
f 13/2/5 14/3/5 16/4/5 15/5/5
f 15/5/1 16/4/1 20/6/1 19/7/1
f 19/7/2 20/6/2 18/8/2 17/9/2
f 17/9/6 18/8/6 14/10/6 13/11/6
f 15/12/3 19/7/3 17/9/3 13/13/3
f 20/6/8 16/14/8 14/15/8 18/8/8
f 22/1/1 25/1/1 26/1/1 21/1/1
f 23/1/2 24/1/2 30/1/2 29/1/2
f 21/1/3 26/1/3 32/1/3 27/1/3
f 24/1/4 25/1/4 31/1/4 30/1/4
f 22/1/5 21/1/5 27/1/5 28/1/5
f 31/1/6 28/1/6 27/1/6 32/1/6
f 26/1/3 23/1/3 29/1/3 32/1/3
f 25/1/7 22/1/7 28/1/7 31/1/7
f 32/1/6 29/1/6 30/1/6 31/1/6
f 25/1/1 24/1/1 23/1/1 26/1/1
f 33/2/5 34/3/5 36/4/5 35/5/5
f 35/5/1 36/4/1 40/6/1 39/7/1
f 39/7/2 40/6/2 38/8/2 37/9/2
f 37/9/6 38/8/6 34/10/6 33/11/6
f 35/12/3 39/7/3 37/9/3 33/13/3
f 40/6/8 36/14/8 34/15/8 38/8/8
f 42/1/1 45/1/1 46/1/1 41/1/1
f 43/1/2 44/1/2 50/1/2 49/1/2
f 41/1/3 46/1/3 52/1/3 47/1/3
f 44/1/4 45/1/4 51/1/4 50/1/4
f 42/1/5 41/1/5 47/1/5 48/1/5
f 51/1/6 48/1/6 47/1/6 52/1/6
f 46/1/3 43/1/3 49/1/3 52/1/3
f 45/1/7 42/1/7 48/1/7 51/1/7
f 52/1/6 49/1/6 50/1/6 51/1/6
f 45/1/1 44/1/1 43/1/1 46/1/1
f 53/2/5 54/3/5 56/4/5 55/5/5
f 55/5/1 56/4/1 60/6/1 59/7/1
f 59/7/2 60/6/2 58/8/2 57/9/2
f 57/9/6 58/8/6 54/10/6 53/11/6
f 55/12/3 59/7/3 57/9/3 53/13/3
f 60/6/8 56/14/8 54/15/8 58/8/8
f 62/1/1 65/1/1 66/1/1 61/1/1
f 63/1/2 64/1/2 70/1/2 69/1/2
f 61/1/3 66/1/3 72/1/3 67/1/3
f 64/1/4 65/1/4 71/1/4 70/1/4
f 62/1/5 61/1/5 67/1/5 68/1/5
f 71/1/6 68/1/6 67/1/6 72/1/6
f 66/1/3 63/1/3 69/1/3 72/1/3
f 65/1/7 62/1/7 68/1/7 71/1/7
f 72/1/6 69/1/6 70/1/6 71/1/6
f 65/1/1 64/1/1 63/1/1 66/1/1
f 73/2/5 74/3/5 76/4/5 75/5/5
f 75/5/1 76/4/1 80/6/1 79/7/1
f 79/7/2 80/6/2 78/8/2 77/9/2
f 77/9/6 78/8/6 74/10/6 73/11/6
f 75/12/3 79/7/3 77/9/3 73/13/3
f 80/6/8 76/14/8 74/15/8 78/8/8
f 82/1/1 85/1/1 86/1/1 81/1/1
f 83/1/2 84/1/2 90/1/2 89/1/2
f 81/1/3 86/1/3 92/1/3 87/1/3
f 84/1/4 85/1/4 91/1/4 90/1/4
f 82/1/5 81/1/5 87/1/5 88/1/5
f 91/1/6 88/1/6 87/1/6 92/1/6
f 86/1/3 83/1/3 89/1/3 92/1/3
f 85/1/7 82/1/7 88/1/7 91/1/7
f 92/1/6 89/1/6 90/1/6 91/1/6
f 85/1/1 84/1/1 83/1/1 86/1/1
f 93/2/5 94/3/5 96/4/5 95/5/5
f 95/5/1 96/4/1 100/6/1 99/7/1
f 99/7/2 100/6/2 98/8/2 97/9/2
f 97/9/6 98/8/6 94/10/6 93/11/6
f 95/12/3 99/7/3 97/9/3 93/13/3
f 100/6/8 96/14/8 94/15/8 98/8/8
f 102/1/1 105/1/1 106/1/1 101/1/1
f 103/1/2 104/1/2 110/1/2 109/1/2
f 101/1/3 106/1/3 112/1/3 107/1/3
f 104/1/4 105/1/4 111/1/4 110/1/4
f 102/1/5 101/1/5 107/1/5 108/1/5
f 111/1/6 108/1/6 107/1/6 112/1/6
f 106/1/3 103/1/3 109/1/3 112/1/3
f 105/1/7 102/1/7 108/1/7 111/1/7
f 112/1/6 109/1/6 110/1/6 111/1/6
f 105/1/1 104/1/1 103/1/1 106/1/1
f 113/2/5 114/3/5 116/4/5 115/5/5
f 115/5/1 116/4/1 120/6/1 119/7/1
f 119/7/2 120/6/2 118/8/2 117/9/2
f 117/9/6 118/8/6 114/10/6 113/11/6
f 115/12/3 119/7/3 117/9/3 113/13/3
f 120/6/8 116/14/8 114/15/8 118/8/8
f 122/1/1 125/1/1 126/1/1 121/1/1
f 123/1/2 124/1/2 130/1/2 129/1/2
f 121/1/3 126/1/3 132/1/3 127/1/3
f 124/1/4 125/1/4 131/1/4 130/1/4
f 122/1/5 121/1/5 127/1/5 128/1/5
f 131/1/6 128/1/6 127/1/6 132/1/6
f 126/1/3 123/1/3 129/1/3 132/1/3
f 125/1/7 122/1/7 128/1/7 131/1/7
f 132/1/6 129/1/6 130/1/6 131/1/6
f 125/1/1 124/1/1 123/1/1 126/1/1
f 133/2/5 134/3/5 136/4/5 135/5/5
f 135/5/1 136/4/1 140/6/1 139/7/1
f 139/7/2 140/6/2 138/8/2 137/9/2
f 137/9/6 138/8/6 134/10/6 133/11/6
f 135/12/3 139/7/3 137/9/3 133/13/3
f 140/6/8 136/14/8 134/15/8 138/8/8
f 142/1/1 145/1/1 146/1/1 141/1/1
f 143/1/2 144/1/2 150/1/2 149/1/2
f 141/1/3 146/1/3 152/1/3 147/1/3
f 144/1/4 145/1/4 151/1/4 150/1/4
f 142/1/5 141/1/5 147/1/5 148/1/5
f 151/1/6 148/1/6 147/1/6 152/1/6
f 146/1/3 143/1/3 149/1/3 152/1/3
f 145/1/7 142/1/7 148/1/7 151/1/7
f 152/1/6 149/1/6 150/1/6 151/1/6
f 145/1/1 144/1/1 143/1/1 146/1/1
f 153/2/5 154/3/5 156/4/5 155/5/5
f 155/5/1 156/4/1 160/6/1 159/7/1
f 159/7/2 160/6/2 158/8/2 157/9/2
f 157/9/6 158/8/6 154/10/6 153/11/6
f 155/12/3 159/7/3 157/9/3 153/13/3
f 160/6/8 156/14/8 154/15/8 158/8/8
f 162/1/1 165/1/1 166/1/1 161/1/1
f 163/1/2 164/1/2 170/1/2 169/1/2
f 161/1/3 166/1/3 172/1/3 167/1/3
f 164/1/4 165/1/4 171/1/4 170/1/4
f 162/1/5 161/1/5 167/1/5 168/1/5
f 171/1/6 168/1/6 167/1/6 172/1/6
f 166/1/3 163/1/3 169/1/3 172/1/3
f 165/1/7 162/1/7 168/1/7 171/1/7
f 172/1/6 169/1/6 170/1/6 171/1/6
f 165/1/1 164/1/1 163/1/1 166/1/1
f 173/2/5 174/3/5 176/4/5 175/5/5
f 175/5/1 176/4/1 180/6/1 179/7/1
f 179/7/2 180/6/2 178/8/2 177/9/2
f 177/9/6 178/8/6 174/10/6 173/11/6
f 175/12/3 179/7/3 177/9/3 173/13/3
f 180/6/8 176/14/8 174/15/8 178/8/8
f 182/1/1 185/1/1 186/1/1 181/1/1
f 183/1/2 184/1/2 190/1/2 189/1/2
f 181/1/3 186/1/3 192/1/3 187/1/3
f 184/1/4 185/1/4 191/1/4 190/1/4
f 182/1/5 181/1/5 187/1/5 188/1/5
f 191/1/6 188/1/6 187/1/6 192/1/6
f 186/1/3 183/1/3 189/1/3 192/1/3
f 185/1/7 182/1/7 188/1/7 191/1/7
f 192/1/6 189/1/6 190/1/6 191/1/6
f 185/1/1 184/1/1 183/1/1 186/1/1
f 193/2/5 194/3/5 196/4/5 195/5/5
f 195/5/1 196/4/1 200/6/1 199/7/1
f 199/7/2 200/6/2 198/8/2 197/9/2
f 197/9/6 198/8/6 194/10/6 193/11/6
f 195/12/3 199/7/3 197/9/3 193/13/3
f 200/6/8 196/14/8 194/15/8 198/8/8
f 202/1/1 205/1/1 206/1/1 201/1/1
f 203/1/2 204/1/2 210/1/2 209/1/2
f 201/1/3 206/1/3 212/1/3 207/1/3
f 204/1/4 205/1/4 211/1/4 210/1/4
f 202/1/5 201/1/5 207/1/5 208/1/5
f 211/1/6 208/1/6 207/1/6 212/1/6
f 206/1/3 203/1/3 209/1/3 212/1/3
f 205/1/7 202/1/7 208/1/7 211/1/7
f 212/1/6 209/1/6 210/1/6 211/1/6
f 205/1/1 204/1/1 203/1/1 206/1/1
f 213/2/5 214/3/5 216/4/5 215/5/5
f 215/5/1 216/4/1 220/6/1 219/7/1
f 219/7/2 220/6/2 218/8/2 217/9/2
f 217/9/6 218/8/6 214/10/6 213/11/6
f 215/12/3 219/7/3 217/9/3 213/13/3
f 220/6/8 216/14/8 214/15/8 218/8/8
f 222/1/1 225/1/1 226/1/1 221/1/1
f 223/1/2 224/1/2 230/1/2 229/1/2
f 221/1/3 226/1/3 232/1/3 227/1/3
f 224/1/4 225/1/4 231/1/4 230/1/4
f 222/1/5 221/1/5 227/1/5 228/1/5
f 231/1/6 228/1/6 227/1/6 232/1/6
f 226/1/3 223/1/3 229/1/3 232/1/3
f 225/1/7 222/1/7 228/1/7 231/1/7
f 232/1/6 229/1/6 230/1/6 231/1/6
f 225/1/1 224/1/1 223/1/1 226/1/1
f 233/2/5 234/3/5 236/4/5 235/5/5
f 235/5/1 236/4/1 240/6/1 239/7/1
f 239/7/2 240/6/2 238/8/2 237/9/2
f 237/9/6 238/8/6 234/10/6 233/11/6
f 235/12/3 239/7/3 237/9/3 233/13/3
f 240/6/8 236/14/8 234/15/8 238/8/8
f 242/1/1 245/1/1 246/1/1 241/1/1
f 243/1/2 244/1/2 250/1/2 249/1/2
f 241/1/3 246/1/3 252/1/3 247/1/3
f 244/1/4 245/1/4 251/1/4 250/1/4
f 242/1/5 241/1/5 247/1/5 248/1/5
f 251/1/6 248/1/6 247/1/6 252/1/6
f 246/1/3 243/1/3 249/1/3 252/1/3
f 245/1/7 242/1/7 248/1/7 251/1/7
f 252/1/6 249/1/6 250/1/6 251/1/6
f 245/1/1 244/1/1 243/1/1 246/1/1
f 253/2/5 254/3/5 256/4/5 255/5/5
f 255/5/1 256/4/1 260/6/1 259/7/1
f 259/7/2 260/6/2 258/8/2 257/9/2
f 257/9/6 258/8/6 254/10/6 253/11/6
f 255/12/3 259/7/3 257/9/3 253/13/3
f 260/6/8 256/14/8 254/15/8 258/8/8
f 262/1/1 265/1/1 266/1/1 261/1/1
f 263/1/2 264/1/2 270/1/2 269/1/2
f 261/1/3 266/1/3 272/1/3 267/1/3
f 264/1/4 265/1/4 271/1/4 270/1/4
f 262/1/5 261/1/5 267/1/5 268/1/5
f 271/1/6 268/1/6 267/1/6 272/1/6
f 266/1/3 263/1/3 269/1/3 272/1/3
f 265/1/7 262/1/7 268/1/7 271/1/7
f 272/1/6 269/1/6 270/1/6 271/1/6
f 265/1/1 264/1/1 263/1/1 266/1/1
f 273/2/5 274/3/5 276/4/5 275/5/5
f 275/5/1 276/4/1 280/6/1 279/7/1
f 279/7/2 280/6/2 278/8/2 277/9/2
f 277/9/6 278/8/6 274/10/6 273/11/6
f 275/12/3 279/7/3 277/9/3 273/13/3
f 280/6/8 276/14/8 274/15/8 278/8/8
f 282/1/1 285/1/1 286/1/1 281/1/1
f 283/1/2 284/1/2 290/1/2 289/1/2
f 281/1/3 286/1/3 292/1/3 287/1/3
f 284/1/4 285/1/4 291/1/4 290/1/4
f 282/1/5 281/1/5 287/1/5 288/1/5
f 291/1/6 288/1/6 287/1/6 292/1/6
f 286/1/3 283/1/3 289/1/3 292/1/3
f 285/1/7 282/1/7 288/1/7 291/1/7
f 292/1/6 289/1/6 290/1/6 291/1/6
f 285/1/1 284/1/1 283/1/1 286/1/1
f 293/2/5 294/3/5 296/4/5 295/5/5
f 295/5/1 296/4/1 300/6/1 299/7/1
f 299/7/2 300/6/2 298/8/2 297/9/2
f 297/9/6 298/8/6 294/10/6 293/11/6
f 295/12/3 299/7/3 297/9/3 293/13/3
f 300/6/8 296/14/8 294/15/8 298/8/8
f 302/1/1 305/1/1 306/1/1 301/1/1
f 303/1/2 304/1/2 310/1/2 309/1/2
f 301/1/3 306/1/3 312/1/3 307/1/3
f 304/1/4 305/1/4 311/1/4 310/1/4
f 302/1/5 301/1/5 307/1/5 308/1/5
f 311/1/6 308/1/6 307/1/6 312/1/6
f 306/1/3 303/1/3 309/1/3 312/1/3
f 305/1/7 302/1/7 308/1/7 311/1/7
f 312/1/6 309/1/6 310/1/6 311/1/6
f 305/1/1 304/1/1 303/1/1 306/1/1
f 313/2/5 314/3/5 316/4/5 315/5/5
f 315/5/1 316/4/1 320/6/1 319/7/1
f 319/7/2 320/6/2 318/8/2 317/9/2
f 317/9/6 318/8/6 314/10/6 313/11/6
f 315/12/3 319/7/3 317/9/3 313/13/3
f 320/6/8 316/14/8 314/15/8 318/8/8
f 322/1/1 325/1/1 326/1/1 321/1/1
f 323/1/2 324/1/2 330/1/2 329/1/2
f 321/1/3 326/1/3 332/1/3 327/1/3
f 324/1/4 325/1/4 331/1/4 330/1/4
f 322/1/5 321/1/5 327/1/5 328/1/5
f 331/1/6 328/1/6 327/1/6 332/1/6
f 326/1/3 323/1/3 329/1/3 332/1/3
f 325/1/7 322/1/7 328/1/7 331/1/7
f 332/1/6 329/1/6 330/1/6 331/1/6
f 325/1/1 324/1/1 323/1/1 326/1/1
f 333/2/5 334/3/5 336/4/5 335/5/5
f 335/5/1 336/4/1 340/6/1 339/7/1
f 339/7/2 340/6/2 338/8/2 337/9/2
f 337/9/6 338/8/6 334/10/6 333/11/6
f 335/12/3 339/7/3 337/9/3 333/13/3
f 340/6/8 336/14/8 334/15/8 338/8/8
f 342/1/1 345/1/1 346/1/1 341/1/1
f 343/1/2 344/1/2 350/1/2 349/1/2
f 341/1/3 346/1/3 352/1/3 347/1/3
f 344/1/4 345/1/4 351/1/4 350/1/4
f 342/1/5 341/1/5 347/1/5 348/1/5
f 351/1/6 348/1/6 347/1/6 352/1/6
f 346/1/3 343/1/3 349/1/3 352/1/3
f 345/1/7 342/1/7 348/1/7 351/1/7
f 352/1/6 349/1/6 350/1/6 351/1/6
f 345/1/1 344/1/1 343/1/1 346/1/1
