# Blender 3.6.2
# www.blender.org
mtllib Edificio_5.mtl
o E5
v -37.764202 -0.078955 2.044512
v -37.764202 -0.078955 -17.941225
v -27.764200 -0.078955 2.044510
v -27.764204 -0.078955 -17.941227
v -37.764202 8.159655 2.044512
v -27.764204 8.159655 -17.941227
v -37.764202 8.159655 -17.941225
v -27.764200 8.159655 2.044510
v -27.634827 8.159655 -18.070602
v -27.412073 8.495808 -18.293358
v -27.634827 9.504873 -18.070602
v -27.412073 9.168720 -18.293358
v -38.116333 9.168720 -18.293356
v -37.893578 9.504873 -18.070601
v -38.116333 9.168720 2.396644
v -37.893578 9.504873 2.173887
v -27.634825 9.504873 2.173885
v -27.412069 9.168720 2.396642
v -38.116333 8.495808 2.396644
v -37.893578 8.159655 2.173887
v -38.116333 8.495808 -18.293356
v -37.893578 8.159655 -18.070601
v -27.634825 8.159655 2.173885
v -27.412069 8.495808 2.396642
v -37.273148 9.503502 -17.450171
v -28.255259 9.503502 -17.450172
v -37.273148 9.503502 1.553457
v -28.255255 9.503502 1.553455
v -37.273148 8.628332 -17.450171
v -28.255259 8.628332 -17.450172
v -27.764202 -0.078955 -8.462843
v -37.764202 -0.078955 -8.462841
v -37.764202 8.159655 -8.462841
v -27.764202 8.159655 -8.462843
v -37.893578 9.504873 -8.469502
v -38.116333 9.168720 -8.480970
v -27.634827 9.504873 -8.469503
v -27.412071 9.168720 -8.480971
v -38.116333 8.495808 -8.480969
v -37.893578 8.159655 -8.469502
v -27.412071 8.495808 -8.480972
v -27.634827 8.159655 -8.469503
v -37.273148 9.503502 -8.437558
v -28.255257 9.503502 -8.437561
v -37.273148 8.628332 -8.437558
v -28.255257 8.628332 -8.437561
v -28.255257 27.548622 -8.437561
v -28.255255 27.548622 1.553455
v -37.273148 27.548622 1.553457
v -37.273148 27.548622 -8.437558
v -28.255257 26.210506 -8.437561
v -37.273148 26.210506 -8.437558
v -28.255255 26.210506 1.553455
v -37.273148 26.210506 1.553457
v -27.628042 27.580879 -9.064775
v -27.628040 27.580879 2.180670
v -37.900360 27.580879 2.180672
v -37.900360 27.580879 -9.064773
v -27.628042 26.242762 -9.064775
v -37.900360 26.242762 2.180672
v -37.900360 26.242762 -9.064773
v -27.628040 26.242762 2.180670
v -27.431313 27.270365 -9.280142
v -27.431313 26.553278 -9.280142
v -38.097092 27.270365 2.396039
v -38.097092 26.553278 2.396039
v -38.097092 26.553278 -9.280139
v -38.097092 27.270365 -9.280139
v -27.431311 26.553278 2.396037
v -27.431311 27.270365 2.396037
v -28.255257 26.735794 -8.437561
v -28.255255 26.735794 1.553455
v -37.273148 26.735794 1.553457
v -37.273148 26.735794 -8.437558
vn -0.0000 1.0000 -0.0022
vn -0.0000 -1.0000 -0.0000
vn 1.0000 -0.0000 -0.0000
vn -0.0000 -0.0000 1.0000
vn -1.0000 -0.0000 -0.0000
vn -0.0000 -0.0000 -1.0000
vn 0.0022 1.0000 -0.0000
vn -0.0022 1.0000 -0.0000
vn -0.0000 0.5524 -0.8336
vn -0.8336 0.5524 -0.0000
vn 0.8336 0.5524 -0.0000
vn -0.0000 0.5524 0.8336
vn -0.0000 -0.5524 0.8336
vn -0.8336 -0.5524 -0.0000
vn 0.8336 -0.5524 -0.0000
vn -0.0000 -0.5524 -0.8336
vn -0.0000 1.0000 -0.0000
vn -0.0000 1.0000 0.0022
vn -0.0514 0.9987 -0.0000
vn 0.0514 0.9987 -0.0000
vn -0.0000 -0.9987 -0.0514
vn -0.0514 -0.9987 -0.0000
vn -0.0000 -0.5699 -0.8217
vn -0.0000 -0.5699 0.8217
vn -0.8447 -0.5352 -0.0000
vn 0.8447 -0.5352 -0.0000
vn 0.0514 -0.9987 -0.0000
vn -0.0000 -0.9987 0.0514
vn -0.0000 0.9987 0.0514
vn -0.0000 0.9987 -0.0514
vn -0.0000 0.5699 0.8217
vn -0.8447 0.5352 -0.0000
vn 0.8447 0.5352 -0.0000
vn -0.0000 0.5699 -0.8217
vt 0.875000 0.500000
vt 0.625000 0.500000
vt 0.125000 0.631436
vt 0.375000 0.631436
vt 0.375000 0.750000
vt 0.125000 0.750000
vt 0.619781 0.118564
vt 0.623964 0.118564
vt 0.623964 0.250000
vt 0.619781 0.250000
vt 0.623964 0.500000
vt 0.619781 0.500000
vt 0.375000 0.250000
vt 0.618746 0.250000
vt 0.618746 0.500000
vt 0.375000 0.500000
vt 0.618746 0.631436
vt 0.618746 0.750000
vt 0.375000 0.118564
vt 0.618746 0.118564
vt 0.618746 1.000000
vt 0.375000 1.000000
vt 0.625000 0.631436
vt 0.625000 0.631436
vt 0.625000 0.750000
vt 0.875000 0.631436
vt 0.875000 0.750000
vt 0.619781 0.750000
vt 0.623964 0.750000
vt 0.623964 1.000000
vt 0.619781 1.000000
vt 0.619781 0.631436
vt 0.623964 0.631436
vt 0.618746 0.631436
vt 0.625000 0.755202
vt 0.625000 0.994798
vt 0.625000 0.118832
vt 0.625000 0.244798
vt 0.625000 0.255202
vt 0.625000 0.494798
vt 0.618746 0.000000
vt 0.619781 0.000000
vt 0.625000 0.005202
vt 0.623964 0.000000
vt 0.375000 0.000000
vt 0.125000 0.500000
s 0
usemtl Material
f 17/1/1 28/1/1 27/2/1 16/2/1
f 31/3/2 32/4/2 2/5/2 4/6/2
f 41/7/3 38/8/3 18/9/3 24/10/3
f 24/10/4 18/9/4 15/11/4 19/12/4
f 3/13/4 8/14/4 5/15/4 1/16/4
f 32/4/5 33/17/5 7/18/5 2/5/5
f 31/19/3 34/20/3 8/14/3 3/13/3
f 2/5/6 7/18/6 6/21/6 4/22/6
f 6/21/2 7/18/2 22/18/2 9/21/2
f 35/23/7 43/24/7 25/25/7 14/25/7
f 5/15/2 8/14/2 23/14/2 20/15/2
f 37/26/8 11/27/8 26/27/8 44/26/8
f 21/28/6 13/29/6 12/30/6 10/31/6
f 39/32/5 36/33/5 13/29/5 21/28/5
f 33/17/2 5/15/2 20/15/2 40/34/2
f 14/35/9 11/36/9 12/30/9 13/29/9
f 35/23/10 14/25/10 13/29/10 36/33/10
f 37/37/11 17/38/11 18/9/11 38/8/11
f 17/39/12 16/40/12 15/11/12 18/9/12
f 24/10/13 19/12/13 20/15/13 23/14/13
f 39/32/14 21/28/14 22/18/14 40/34/14
f 41/7/15 24/10/15 23/14/15 42/20/15
f 21/28/16 10/31/16 9/21/16 22/18/16
f 34/20/2 6/41/2 9/41/2 42/20/2
f 44/26/5 26/27/5 30/27/5 46/26/5
f 45/23/17 46/26/17 30/27/17 29/25/17
f 26/27/4 25/25/4 29/25/4 30/27/4
f 14/25/18 25/25/18 26/27/18 11/27/18
f 25/25/3 43/24/3 45/23/3 29/25/3
f 47/26/19 48/1/19 56/1/19 55/26/19
f 8/14/2 34/20/2 42/20/2 23/14/2
f 10/42/15 41/7/15 42/20/15 9/41/15
f 19/12/14 39/32/14 40/34/14 20/15/14
f 11/43/11 37/37/11 38/8/11 12/44/11
f 16/2/10 35/23/10 36/33/10 15/11/10
f 7/18/2 33/17/2 40/34/2 22/18/2
f 19/12/5 15/11/5 36/33/5 39/32/5
f 17/1/8 37/26/8 44/26/8 28/1/8
f 16/2/7 27/2/7 43/24/7 35/23/7
f 4/45/3 6/41/3 34/20/3 31/19/3
f 1/16/5 5/15/5 33/17/5 32/4/5
f 10/42/3 12/44/3 38/8/3 41/7/3
f 3/46/2 1/16/2 32/4/2 31/3/2
f 47/26/4 50/23/4 74/23/4 71/26/4
f 49/2/20 50/23/20 58/23/20 57/2/20
f 51/26/21 52/23/21 61/23/21 59/26/21
f 52/23/22 54/2/22 60/2/22 61/23/22
f 46/26/6 45/23/6 43/23/6 44/26/6
f 44/26/6 43/23/6 52/23/6 51/26/6
f 27/2/4 28/1/4 53/1/4 54/2/4
f 43/23/5 27/2/5 54/2/5 52/23/5
f 28/1/3 44/26/3 51/26/3 53/1/3
f 59/26/23 61/23/23 67/23/23 64/26/23
f 60/2/24 62/1/24 69/1/24 66/2/24
f 61/23/25 60/2/25 66/2/25 67/23/25
f 62/1/26 59/26/26 64/26/26 69/1/26
f 53/1/27 51/26/27 59/26/27 62/1/27
f 54/2/28 53/1/28 62/1/28 60/2/28
f 50/23/29 47/26/29 55/26/29 58/23/29
f 48/1/30 49/2/30 57/2/30 56/1/30
f 65/2/31 70/1/31 56/1/31 57/2/31
f 68/23/32 65/2/32 57/2/32 58/23/32
f 70/1/33 63/26/33 55/26/33 56/1/33
f 68/23/6 63/26/6 64/26/6 67/23/6
f 70/1/4 65/2/4 66/2/4 69/1/4
f 65/2/5 68/23/5 67/23/5 66/2/5
f 63/26/3 70/1/3 69/1/3 64/26/3
f 63/26/34 68/23/34 58/23/34 55/26/34
f 73/2/17 72/1/17 71/26/17 74/23/17
f 49/2/6 48/1/6 72/1/6 73/2/6
f 50/23/3 49/2/3 73/2/3 74/23/3
f 48/1/5 47/26/5 71/26/5 72/1/5
