# Blender 3.6.0
# www.blender.org
mtllib Edificio_1.mtl
o E1
v 4.861217 -0.078951 -8.249832
v 4.861217 -0.078950 7.690751
v -5.138783 -0.078951 -8.249832
v -5.138783 -0.078950 7.690751
v 4.861217 8.159658 -8.249832
v -5.138783 8.159660 7.690750
v 4.861217 8.159660 7.690750
v -5.138783 8.159658 -8.249832
v -5.268158 8.159660 7.820129
v -5.490913 8.495813 8.042885
v -5.268158 9.504879 7.820129
v -5.490913 9.168726 8.042885
v 5.213348 9.168726 8.042885
v 4.990593 9.504879 7.820129
v 5.213348 9.168724 -8.601967
v 4.990593 9.504877 -8.379211
v -5.268158 9.504877 -8.379211
v -5.490913 9.168724 -8.601967
v 5.213348 8.495811 -8.601967
v 4.990593 8.159658 -8.379211
v 5.213348 8.495813 8.042885
v 4.990593 8.159660 7.820129
v -5.268158 8.159658 -8.379211
v -5.490913 8.495811 -8.601967
v 4.370163 9.503508 7.199699
v -4.647728 9.503508 7.199699
v 4.370163 9.503506 -7.758782
v -4.647728 9.503506 -7.758782
v 4.370163 8.628338 7.199699
v -4.647728 8.628338 7.199699
v 4.370163 8.628336 -7.758782
v -4.647728 8.628336 -7.758782
vn -0.0000 1.0000 0.0022
vn -0.0000 -1.0000 -0.0000
vn -1.0000 -0.0000 -0.0000
vn -0.0000 -0.0000 -1.0000
vn 1.0000 -0.0000 -0.0000
vn -0.0000 -0.0000 1.0000
vn -0.0022 1.0000 -0.0000
vn 0.0022 1.0000 -0.0000
vn -0.0000 0.5524 0.8336
vn 0.8336 0.5524 -0.0000
vn -0.8336 0.5524 -0.0000
vn -0.0000 0.5524 -0.8336
vn -0.0000 -0.5524 -0.8336
vn 0.8336 -0.5524 -0.0000
vn -0.8336 -0.5524 -0.0000
vn -0.0000 -0.5524 0.8336
vn -0.0000 1.0000 -0.0000
vn -0.0000 1.0000 -0.0022
vt 0.875000 0.500000
vt 0.625000 0.500000
vt 0.125000 0.500000
vt 0.375000 0.500000
vt 0.375000 0.750000
vt 0.125000 0.750000
vt 0.619781 0.000000
vt 0.623964 0.000000
vt 0.623964 0.250000
vt 0.619781 0.250000
vt 0.623964 0.500000
vt 0.619781 0.500000
vt 0.375000 0.250000
vt 0.618746 0.250000
vt 0.618746 0.500000
vt 0.618746 0.750000
vt 0.375000 0.000000
vt 0.618746 0.000000
vt 0.618746 1.000000
vt 0.375000 1.000000
vt 0.625000 0.750000
vt 0.875000 0.750000
vt 0.619781 0.750000
vt 0.623964 0.750000
vt 0.623964 1.000000
vt 0.619781 1.000000
vt 0.625000 0.755202
vt 0.625000 0.994798
vt 0.625000 0.005202
vt 0.625000 0.244798
vt 0.625000 0.255202
vt 0.625000 0.494798
s 0
usemtl Material.001
f 17/1/1 28/1/1 27/2/1 16/2/1
f 3/3/2 1/4/2 2/5/2 4/6/2
f 10/7/3 12/8/3 18/9/3 24/10/3
f 24/10/4 18/9/4 15/11/4 19/12/4
f 3/13/4 8/14/4 5/15/4 1/4/4
f 1/4/5 5/15/5 7/16/5 2/5/5
f 4/17/3 6/18/3 8/14/3 3/13/3
f 2/5/6 7/16/6 6/19/6 4/20/6
f 6/19/2 7/16/2 22/16/2 9/19/2
f 16/2/7 27/2/7 25/21/7 14/21/7
f 5/15/2 8/14/2 23/14/2 20/15/2
f 17/1/8 11/22/8 26/22/8 28/1/8
f 21/23/6 13/24/6 12/25/6 10/26/6
f 19/12/5 15/11/5 13/24/5 21/23/5
f 7/16/2 5/15/2 20/15/2 22/16/2
f 14/27/9 11/28/9 12/25/9 13/24/9
f 16/2/10 14/21/10 13/24/10 15/11/10
f 11/29/11 17/30/11 18/9/11 12/8/11
f 17/31/12 16/32/12 15/11/12 18/9/12
f 24/10/13 19/12/13 20/15/13 23/14/13
f 19/12/14 21/23/14 22/16/14 20/15/14
f 10/7/15 24/10/15 23/14/15 9/18/15
f 21/23/16 10/26/16 9/19/16 22/16/16
f 8/14/2 6/18/2 9/18/2 23/14/2
f 28/1/5 26/22/5 30/22/5 32/1/5
f 31/2/17 32/1/17 30/22/17 29/21/17
f 26/22/4 25/21/4 29/21/4 30/22/4
f 27/2/6 28/1/6 32/1/6 31/2/6
f 25/21/3 27/2/3 31/2/3 29/21/3
f 14/21/18 25/21/18 26/22/18 11/22/18
